# xmcd
#
# Track frame offsets:
#	150
#	25913
#	52893
#	75722
#	94556
#	122529
#	145927
#	171036
#	193855
#	221117
#	244658
#	277939
#	308139
#
# Disc length: 4517 seconds
#
# Revision: 0
# Processed by: cddbd v1.5.1PL0 Copyright (c) Steve Scherf et al.
# Submitted via: audiograbber 1.83.01
#
DISCID=ac11a30d
DTITLE=compiled and mixed by DJ ZigZag - Beach sessions vol.1 CD1:sunset
DYEAR=2005
DGENRE=A Cappella
TTITLE0=Zuko 103 - Peregrino (David Walters RMX)
TTITLE1=Da Lata - serius
TTITLE2=New Land - the deal
TTITLE3=John Beltran - kissed by the sun
TTITLE4=Allen Hoist - inner city blues
TTITLE5=Onions - the brand
TTITLE6=Julius Papp - Bole Bantu
TTITLE7=Dutch Rhithm Combo - Aruba
TTITLE8=Roy Davis Jr. - I know what you're thinking
TTITLE9=RSL - The mast
TTITLE10=Soul central - strings of life
TTITLE11=The Sunburst band - fly away
TTITLE12=JT Donaldson - be with me
EXTD=
EXTT0=
EXTT1=
EXTT2=
EXTT3=
EXTT4=
EXTT5=
EXTT6=
EXTT7=
EXTT8=
EXTT9=
EXTT10=
EXTT11=
EXTT12=
PLAYORDER=
